#extradata 0:       13, 0x0e4c033a
#tb 0: 1/1200000
#media_type 0: video
#codec_id 0: av1
#dimensions 0: 300x300
#sar 0: 0/1
0,          0,          0,    48000,    12691, 0xf0adcc79
0,      48000,      48000,    48000,     4975, 0x1742a45f, F=0x0
0,      96000,      96000,    48000,      928, 0x7408be1a, F=0x0
0,     144000,     144000,    48000,      702, 0x1d4464ca, F=0x0
0,     192000,     192000,    48000,     1372, 0x37999ccf, F=0x0
0,     240000,     240000,    48000,     1085, 0x06b61548, F=0x0
0,     288000,     288000,    48000,     1533, 0x5e05dea3, F=0x0
0,     336000,     336000,    48000,     1416, 0x31d4b906, F=0x0
0,     384000,     384000,    48000,      108, 0xf52a2c59, F=0x0
0,     432000,     432000,    48000,     1740, 0x1f065d09, F=0x0
